<svg width="30" height="32" viewBox="0 0 30 32" fill="none" xmlns="http://www.w3.org/2000/svg">
<path fill-rule="evenodd" clip-rule="evenodd" d="M7.85715 1.2619C4.21831 1.2619 1.21429 4.41832 1.21429 8.38095V23.619C1.21429 27.5817 4.21831 30.7381 7.85715 30.7381H22.1429C25.7817 30.7381 28.7857 27.5817 28.7857 23.619V8.38095C28.7857 4.41832 25.7817 1.2619 22.1429 1.2619H7.85715ZM0.214294 8.38095C0.214294 3.92781 3.60621 0.261902 7.85715 0.261902H22.1429C26.3938 0.261902 29.7857 3.92781 29.7857 8.38095V23.619C29.7857 28.0722 26.3938 31.7381 22.1429 31.7381H7.85715C3.60621 31.7381 0.214294 28.0722 0.214294 23.619V8.38095ZM15.8219 10.3983C14.7446 10.2279 13.6429 10.4237 12.6721 10.961C11.7007 11.4986 10.9072 12.3526 10.4098 13.4068C9.91223 14.4613 9.73818 15.6587 9.91451 16.8275C10.0908 17.9963 10.6076 19.0715 11.386 19.9018C12.1639 20.7316 13.1629 21.2742 14.2386 21.4588C15.3139 21.6434 16.4177 21.4621 17.3944 20.9377C18.3717 20.413 19.1748 19.5697 19.6843 18.5223C20.194 17.4747 20.3819 16.2797 20.2191 15.1086C20.053 13.914 19.5317 12.8127 18.7377 11.9658C17.9441 11.1193 16.9211 10.5722 15.8219 10.3983ZM12.1879 10.086C13.3508 9.44238 14.6776 9.20491 15.9781 9.41061C17.3044 9.6204 18.5269 10.2789 19.4672 11.2818C20.407 12.2843 21.0159 13.5782 21.2095 14.9709C21.3993 16.3361 21.1811 17.7315 20.5836 18.9598C19.9859 20.1884 19.0373 21.1907 17.8674 21.8188C16.6969 22.4472 15.3674 22.6672 14.0694 22.4444C12.7718 22.2217 11.5782 21.569 10.6564 20.5857C9.73505 19.6029 9.13128 18.3395 8.9257 16.9767C8.72013 15.614 8.92225 14.2159 9.50543 12.9801C10.0887 11.7439 11.0255 10.7294 12.1879 10.086ZM22.8572 7.11904C22.581 7.11904 22.3572 7.3429 22.3572 7.61904C22.3572 7.89519 22.581 8.11904 22.8572 8.11904H22.8708C23.1469 8.11904 23.3708 7.89519 23.3708 7.61904C23.3708 7.3429 23.1469 7.11904 22.8708 7.11904H22.8572Z" fill="black"/>
</svg>
