<svg width="31" height="32" viewBox="0 0 31 32" fill="none" xmlns="http://www.w3.org/2000/svg">
<path fill-rule="evenodd" clip-rule="evenodd" d="M1.2381 4C1.2381 2.47016 2.37322 1.3 3.69048 1.3C5.00774 1.3 6.14286 2.47016 6.14286 4C6.14286 5.52985 5.00774 6.7 3.69048 6.7C2.37322 6.7 1.2381 5.52985 1.2381 4ZM3.69048 0.300003C1.74663 0.300003 0.238098 1.99523 0.238098 4C0.238098 6.00478 1.74663 7.7 3.69048 7.7C5.63433 7.7 7.14286 6.00478 7.14286 4C7.14286 1.99523 5.63433 0.300003 3.69048 0.300003ZM21.4048 10.9C19.2019 10.9 17.0803 11.8481 15.5093 13.5508C13.9371 15.2549 13.0476 17.5741 13.0476 20V30.7H17.9524V20C17.9524 19.0311 18.3071 18.0946 18.9496 17.3982C19.5934 16.7005 20.4755 16.3 21.4048 16.3C22.334 16.3 23.2161 16.7005 23.8599 17.3982C24.5024 18.0946 24.8571 19.0311 24.8571 20V30.7H29.7619V20C29.7619 17.5741 28.8724 15.2549 27.3002 13.5508C25.7293 11.8481 23.6076 10.9 21.4048 10.9ZM14.7743 12.8727C16.5255 10.9747 18.9095 9.9 21.4048 9.9C23.9 9.9 26.2841 10.9747 28.0352 12.8727C29.7851 14.7694 30.7619 17.3337 30.7619 20V31.2C30.7619 31.4761 30.5381 31.7 30.2619 31.7H24.3571C24.081 31.7 23.8571 31.4761 23.8571 31.2V20C23.8571 19.2715 23.5898 18.5801 23.1249 18.0763C22.6613 17.5738 22.0416 17.3 21.4048 17.3C20.7679 17.3 20.1482 17.5738 19.6846 18.0763C19.2198 18.5801 18.9524 19.2715 18.9524 20V31.2C18.9524 31.4761 18.7285 31.7 18.4524 31.7H12.5476C12.2715 31.7 12.0476 31.4761 12.0476 31.2V20C12.0476 17.3337 13.0245 14.7694 14.7743 12.8727ZM0.238098 12C0.238098 11.7239 0.461956 11.5 0.738098 11.5H6.64286C6.919 11.5 7.14286 11.7239 7.14286 12V31.2C7.14286 31.4761 6.919 31.7 6.64286 31.7H0.738098C0.461956 31.7 0.238098 31.4761 0.238098 31.2V12ZM1.2381 12.5V30.7H6.14286V12.5H1.2381Z" fill="black"/>
</svg>
