<svg width="41" height="34" viewBox="0 0 41 34" fill="none" xmlns="http://www.w3.org/2000/svg">
<path d="M37.5789 7.26843C37.3789 6.39865 36.9717 5.60173 36.3984 4.95816C35.825 4.31458 35.1058 3.84714 34.3135 3.60306C31.4184 2.83333 19.838 2.83333 19.838 2.83333C19.838 2.83333 8.25757 2.83333 5.36247 3.67636C4.5701 3.92045 3.85092 4.38789 3.27758 5.03146C2.70423 5.67504 2.29702 6.47196 2.09707 7.34174C1.56723 10.5408 1.30805 13.786 1.3228 17.0366C1.30391 20.3117 1.56311 23.5817 2.09707 26.8049C2.3175 27.6476 2.73384 28.4142 3.30585 29.0306C3.87786 29.647 4.58622 30.0924 5.36247 30.3236C8.25757 31.1667 19.838 31.1667 19.838 31.1667C19.838 31.1667 31.4184 31.1667 34.3135 30.3236C35.1058 30.0795 35.825 29.6121 36.3984 28.9685C36.9717 28.3249 37.3789 27.528 37.5789 26.6583C38.1046 23.4833 38.3638 20.2628 38.3531 17.0366C38.372 13.7616 38.1128 10.4916 37.5789 7.26843V7.26843Z" stroke="black" stroke-linecap="round" stroke-linejoin="round"/>
<path d="M15.871 22.6667L26.4516 17L15.871 11.3333V22.6667Z" stroke="black" stroke-linecap="round" stroke-linejoin="round"/>
</svg>
